<?xml version="1.0" standalone="no"?>
<!DOCTYPE svg PUBLIC "-//W3C//DTD SVG 20010904//EN"
 "http://www.w3.org/TR/2001/REC-SVG-20010904/DTD/svg10.dtd">
<svg version="1.0" xmlns="http://www.w3.org/2000/svg"
 width="421.000000pt" height="421.000000pt" viewBox="0 0 421.000000 421.000000"
 preserveAspectRatio="xMidYMid meet">
<metadata>
Created by potrace 1.14, written by Peter Selinger 2001-2017
</metadata>
<g transform="translate(0.000000,421.000000) scale(0.100000,-0.100000)"
fill="#000000" stroke="none">
<path d="M1324 3379 c-12 -4 -60 -45 -106 -92 -56 -55 -96 -86 -116 -90 -16
-3 -36 -13 -44 -21 -9 -8 -29 -14 -46 -14 -35 1 -149 -58 -195 -102 -18 -17
-35 -30 -39 -30 -4 0 -21 -21 -39 -46 -27 -39 -30 -52 -25 -85 4 -26 1 -57 -9
-87 -16 -46 -23 -212 -10 -233 4 -5 6 -42 6 -82 0 -70 33 -217 49 -217 12 0
57 -150 59 -197 2 -36 -1 -43 -17 -43 -12 0 -26 -12 -35 -32 -19 -41 -10 -108
26 -198 45 -110 89 -156 132 -139 34 13 40 10 105 -48 34 -32 71 -65 82 -73
10 -8 31 -25 46 -38 15 -12 55 -37 89 -53 l62 -31 -3 -47 c-2 -25 -4 -51 -5
-57 0 -6 -19 -16 -41 -23 -42 -12 -103 -58 -95 -71 2 -4 -13 -19 -35 -34 -22
-15 -50 -34 -62 -44 -37 -28 -172 -166 -193 -196 -22 -31 -106 -185 -109 -201
-1 -5 -10 -28 -19 -49 -17 -39 -44 -125 -52 -164 -6 -31 -14 -164 -20 -312 -3
-75 -7 -146 -10 -158 l-4 -22 854 0 854 0 -4 43 c-2 23 -7 82 -10 131 -4 49
-8 98 -10 110 -2 11 -6 46 -10 77 -3 31 -7 66 -10 77 -22 116 -30 286 -14 307
4 6 7 12 7 15 1 3 5 17 11 32 11 29 19 29 71 4 72 -36 80 -41 80 -48 0 -5 5
-8 10 -8 6 0 18 -8 28 -18 11 -9 32 -26 47 -37 16 -11 33 -25 39 -30 19 -18
140 -119 180 -150 21 -16 44 -34 50 -40 37 -32 96 -75 105 -75 5 0 11 -3 13
-7 4 -10 87 -64 102 -68 6 -1 25 -8 41 -15 42 -19 134 -16 176 5 53 27 103 91
115 148 3 12 8 33 11 47 11 49 5 216 -12 310 -9 52 -19 111 -21 130 -2 19 -13
94 -24 165 -11 72 -32 206 -46 298 -25 171 -33 200 -66 249 -11 16 -21 53 -24
92 l-6 64 31 7 c37 8 112 73 142 123 55 91 116 179 141 207 15 17 28 33 28 36
0 3 11 19 25 35 14 16 25 33 25 37 0 5 7 15 15 24 17 16 12 48 -10 72 -21 21
-63 16 -86 -10 -11 -13 -29 -34 -40 -47 -10 -12 -19 -27 -19 -32 0 -6 -5 -10
-10 -10 -6 0 -14 -8 -17 -17 -4 -10 -20 -31 -36 -48 -27 -28 -28 -28 -17 -5 7
14 25 41 39 60 36 48 51 72 57 93 4 9 10 17 14 17 4 0 13 14 20 30 7 17 16 30
21 30 4 0 11 10 15 23 4 12 10 24 14 27 18 14 36 67 28 86 -17 36 -44 46 -83
30 -19 -8 -35 -20 -35 -25 0 -6 -22 -42 -50 -81 -27 -39 -50 -75 -50 -80 0 -6
-4 -10 -10 -10 -5 0 -10 -5 -10 -10 0 -6 -5 -16 -10 -23 -6 -7 -22 -27 -35
-46 -14 -19 -25 -30 -25 -24 0 14 81 157 92 161 4 2 8 10 8 18 0 8 4 14 9 14
5 0 14 12 20 28 6 15 26 55 46 90 19 34 35 70 35 80 -1 28 -26 53 -59 58 -26
4 -34 0 -62 -38 -17 -24 -36 -54 -42 -68 -7 -14 -14 -27 -17 -30 -10 -9 -100
-172 -100 -181 0 -5 -4 -9 -10 -9 -5 0 -10 -6 -10 -14 0 -8 -7 -16 -15 -20 -8
-3 -15 -4 -15 -2 0 2 32 67 71 145 39 78 72 151 74 161 5 24 -24 60 -50 64
-39 6 -64 -27 -146 -192 -46 -92 -86 -169 -90 -172 -3 -3 -11 -15 -18 -27 -6
-13 -17 -23 -24 -23 -16 0 -43 45 -51 86 -10 46 -83 105 -119 96 -4 -1 -17 -4
-29 -5 -23 -4 -48 -33 -48 -55 0 -8 13 -31 29 -51 56 -71 62 -96 61 -229 -1
-105 14 -190 49 -266 28 -64 29 -70 17 -98 -12 -26 -13 -45 -6 -98 4 -27 4
-51 0 -52 -3 -2 -13 -23 -23 -47 -14 -37 -16 -69 -12 -200 3 -86 7 -165 9
-176 2 -11 7 -51 11 -89 8 -84 20 -91 -157 86 -129 128 -187 178 -210 182 -7
1 -17 4 -23 8 -8 5 -62 22 -110 34 -121 31 -267 33 -375 5 -41 -10 -76 -18
-78 -17 -1 2 26 32 60 68 35 36 71 76 81 89 25 33 87 166 87 187 0 31 25 65
50 69 47 7 53 23 54 145 0 166 -27 240 -83 225 -16 -4 -17 7 -15 135 3 121 1
146 -17 194 -15 41 -22 83 -23 152 -2 88 -8 116 -35 162 -5 8 -17 42 -26 75
-18 63 -92 163 -127 173 -10 2 -18 9 -18 14 0 5 -4 7 -9 3 -5 -3 -12 -1 -16 5
-4 6 -11 8 -16 5 -19 -12 -8 15 12 29 26 18 34 69 13 86 -12 11 -19 9 -37 -9
-13 -11 -32 -21 -44 -21 -22 0 -79 26 -88 40 -16 26 -145 44 -199 29 -22 -7
-37 -4 -62 12 -45 27 -85 38 -110 28z"/>
</g>
</svg>
